<svg width="24" height="24" viewBox="0 0 24 24" fill="none" xmlns="http://www.w3.org/2000/svg">
  <!-- Git branch base -->
  <path d="M6 3a3 3 0 1 0 0 6 3 3 0 0 0 0-6z" fill="currentColor"/>
  <path d="M18 15a3 3 0 1 0 0 6 3 3 0 0 0 0-6z" fill="currentColor"/>
  
  <!-- Git connection lines -->
  <path d="M6 9v6" stroke="currentColor" stroke-width="2"/>
  <path d="M9 6h6" stroke="currentColor" stroke-width="2"/>
  <path d="M15 6v9" stroke="currentColor" stroke-width="2"/>
  
  <!-- AI automation indicator -->
  <circle cx="12" cy="12" r="2" fill="currentColor"/>
  <path d="M12 8v2m0 4v2m4-4h-2m-4 0H8" stroke="currentColor" stroke-width="1.5" stroke-linecap="round"/>
  
  <!-- Automation arrows -->
  <path d="m8 8 1.5 1.5L8 11" stroke="currentColor" stroke-width="1.5" stroke-linecap="round" stroke-linejoin="round"/>
  <path d="m16 13-1.5 1.5L16 16" stroke="currentColor" stroke-width="1.5" stroke-linecap="round" stroke-linejoin="round"/>
</svg> 